# xmcd
#
# Track frame offsets:
#	150
#	8430
#	24300
#	39129
#	52420
#	82122
#	99662
#	117185
#	135978
#
# Disc length: 1979 seconds
#
# Revision: 0
# Processed by: cddbd v1.5.2PL0 Copyright (c) Steve Scherf et al.
# Submitted via: FairStars CD Ripper 1.01
#
DISCID=6507b909
DTITLE=Hilary Sloan - Images From Hard Luck Town
DYEAR=2007
DGENRE=Country
TTITLE0=Images
TTITLE1=Hard Luck Town
TTITLE2=If We're All The Same
TTITLE3=Rachel Corrie
TTITLE4=Midnight On The Stormy Deep
TTITLE5=Some Things They Can't Take Away
TTITLE6=Devil And The Deep Blue Sea
TTITLE7=Valley of Shadows
TTITLE8=Let Them Have Peace
EXTD=
EXTT0=
EXTT1=
EXTT2=
EXTT3=
EXTT4=
EXTT5=
EXTT6=
EXTT7=
EXTT8=
PLAYORDER=
